<?xml version="1.0" encoding="UTF-8" standalone="no"?>
<!DOCTYPE svg PUBLIC "-//W3C//DTD SVG 1.1//EN"
 "http://www.w3.org/Graphics/SVG/1.1/DTD/svg11.dtd">
<!-- Generated by graphviz version 12.2.1 (20241206.2353)
 -->
<!-- Pages: 1 -->
<svg width="477pt" height="183pt"
 viewBox="0.00 0.00 477.20 183.13" xmlns="http://www.w3.org/2000/svg" xmlns:xlink="http://www.w3.org/1999/xlink">
<g id="graph0" class="graph" transform="scale(1 1) rotate(0) translate(4 179.13)">
<polygon fill="white" stroke="none" points="-4,4 -4,-179.13 473.2,-179.13 473.2,4 -4,4"/>
<!-- &#45;1 -->
<g id="node1" class="node">
<title>&#45;1</title>
<polygon fill="lightgray" stroke="black" points="151.2,-175.13 126.95,-175.13 126.95,-154.38 151.2,-154.38 151.2,-175.13"/>
<text text-anchor="middle" x="139.07" y="-162.58" font-family="Times,serif" font-size="9.00">&#45;1</text>
</g>
<!-- 1 -->
<g id="node10" class="node">
<title>1</title>
<ellipse fill="lightblue" stroke="black" cx="135.07" cy="-15.03" rx="15.03" ry="15.03"/>
<text text-anchor="middle" x="135.07" y="-12.85" font-family="Times,serif" font-size="9.00">1</text>
</g>
<!-- &#45;1&#45;&gt;1 -->
<g id="edge8" class="edge">
<title>&#45;1&#45;&gt;1</title>
<path fill="none" stroke="red" stroke-width="0.22" d="M138.81,-154.06C138.19,-131.22 136.63,-73.47 135.73,-40.36"/>
<polygon fill="red" stroke="red" stroke-width="0.22" points="139.23,-40.39 135.46,-30.49 132.23,-40.58 139.23,-40.39"/>
</g>
<!-- 2 -->
<g id="node11" class="node">
<title>2</title>
<ellipse fill="lightblue" stroke="black" cx="198.07" cy="-15.03" rx="15.03" ry="15.03"/>
<text text-anchor="middle" x="198.07" y="-12.85" font-family="Times,serif" font-size="9.00">2</text>
</g>
<!-- &#45;1&#45;&gt;2 -->
<g id="edge2" class="edge">
<title>&#45;1&#45;&gt;2</title>
<path fill="none" stroke="red" stroke-width="0.23" d="M142.94,-154.06C152.24,-130.79 176,-71.28 189.09,-38.51"/>
<polygon fill="red" stroke="red" stroke-width="0.23" points="192.2,-40.17 192.65,-29.59 185.69,-37.58 192.2,-40.17"/>
</g>
<!-- 3 -->
<g id="node12" class="node">
<title>3</title>
<ellipse fill="lightblue" stroke="black" cx="337.07" cy="-15.03" rx="15.03" ry="15.03"/>
<text text-anchor="middle" x="337.07" y="-12.85" font-family="Times,serif" font-size="9.00">3</text>
</g>
<!-- &#45;1&#45;&gt;3 -->
<g id="edge17" class="edge">
<title>&#45;1&#45;&gt;3</title>
<path fill="none" stroke="red" stroke-width="0.31" d="M151.68,-163.06C193.39,-160.46 325.63,-149.84 351.07,-118.38 369.44,-95.66 358.76,-60.41 348.57,-37.78"/>
<polygon fill="red" stroke="red" stroke-width="0.31" points="351.87,-36.56 344.37,-29.07 345.56,-39.59 351.87,-36.56"/>
</g>
<!-- 1979 -->
<g id="node13" class="node">
<title>1979</title>
<ellipse fill="white" stroke="black" cx="43.07" cy="-92.21" rx="26.16" ry="26.16"/>
<text text-anchor="middle" x="43.07" y="-90.04" font-family="Times,serif" font-size="9.00">1979</text>
</g>
<!-- &#45;1&#45;&gt;1979 -->
<g id="edge19" class="edge">
<title>&#45;1&#45;&gt;1979</title>
<path fill="none" stroke="red" stroke-width="0.65" d="M126.52,-154.53C112.89,-144.52 90.65,-128.18 72.56,-114.88"/>
<polygon fill="red" stroke="red" stroke-width="0.65" points="74.99,-112.32 64.86,-109.22 70.84,-117.97 74.99,-112.32"/>
</g>
<!-- &#45;2 -->
<g id="node2" class="node">
<title>&#45;2</title>
<polygon fill="lightgray" stroke="black" points="225.2,-102.59 200.95,-102.59 200.95,-81.84 225.2,-81.84 225.2,-102.59"/>
<text text-anchor="middle" x="213.07" y="-90.04" font-family="Times,serif" font-size="9.00">&#45;2</text>
</g>
<!-- &#45;2&#45;&gt;1 -->
<g id="edge6" class="edge">
<title>&#45;2&#45;&gt;1</title>
<path fill="none" stroke="green" stroke-width="0.39" d="M202.87,-81.39C190.21,-69.18 168.41,-48.16 152.94,-33.26"/>
<polygon fill="green" stroke="green" stroke-width="0.39" points="155.58,-30.93 145.95,-26.51 150.72,-35.97 155.58,-30.93"/>
</g>
<!-- &#45;2&#45;&gt;2 -->
<g id="edge13" class="edge">
<title>&#45;2&#45;&gt;2</title>
<path fill="none" stroke="red" stroke-width="0.19" d="M211.11,-81.39C209.03,-70.98 205.68,-54.17 202.89,-40.2"/>
<polygon fill="red" stroke="red" stroke-width="0.19" points="206.35,-39.62 200.96,-30.5 199.48,-40.99 206.35,-39.62"/>
</g>
<!-- &#45;2&#45;&gt;3 -->
<g id="edge23" class="edge">
<title>&#45;2&#45;&gt;3</title>
<path fill="none" stroke="red" stroke-width="0.19" d="M219.63,-81.51C223.41,-76.44 228.51,-70.4 234.07,-66.05 258.4,-47.02 291.15,-32.66 313.12,-24.31"/>
<polygon fill="red" stroke="red" stroke-width="0.19" points="314.23,-27.64 322.41,-20.91 311.82,-21.07 314.23,-27.64"/>
</g>
<!-- &#45;3 -->
<g id="node3" class="node">
<title>&#45;3</title>
<polygon fill="lightgray" stroke="black" points="469.2,-102.59 444.95,-102.59 444.95,-81.84 469.2,-81.84 469.2,-102.59"/>
<text text-anchor="middle" x="457.07" y="-90.04" font-family="Times,serif" font-size="9.00">&#45;3</text>
</g>
<!-- 0 -->
<g id="node9" class="node">
<title>0</title>
<ellipse fill="lightblue" stroke="black" cx="409.07" cy="-15.03" rx="15.03" ry="15.03"/>
<text text-anchor="middle" x="409.07" y="-12.85" font-family="Times,serif" font-size="9.00">0</text>
</g>
<!-- &#45;3&#45;&gt;0 -->
<g id="edge25" class="edge">
<title>&#45;3&#45;&gt;0</title>
<path fill="none" stroke="green" stroke-width="0.22" d="M450.8,-81.39C443.6,-70.11 431.6,-51.31 422.31,-36.76"/>
<polygon fill="green" stroke="green" stroke-width="0.22" points="425.45,-35.18 417.12,-28.64 419.55,-38.95 425.45,-35.18"/>
</g>
<!-- &#45;4 -->
<g id="node4" class="node">
<title>&#45;4</title>
<polygon fill="lightgray" stroke="black" points="55.2,-175.13 30.95,-175.13 30.95,-154.38 55.2,-154.38 55.2,-175.13"/>
<text text-anchor="middle" x="43.07" y="-162.58" font-family="Times,serif" font-size="9.00">&#45;4</text>
</g>
<!-- &#45;4&#45;&gt;1 -->
<g id="edge20" class="edge">
<title>&#45;4&#45;&gt;1</title>
<path fill="none" stroke="green" stroke-width="0.47" d="M32.51,-154.12C24.07,-145.65 12.89,-132.5 8.07,-118.38 0.57,-96.37 -5.02,-85.28 8.07,-66.05 30.78,-32.7 79.45,-21.59 109.51,-17.88"/>
<polygon fill="green" stroke="green" stroke-width="0.47" points="109.74,-21.38 119.32,-16.86 109.01,-14.41 109.74,-21.38"/>
</g>
<!-- &#45;4&#45;&gt;3 -->
<g id="edge21" class="edge">
<title>&#45;4&#45;&gt;3</title>
<path fill="none" stroke="red" stroke-width="0.4" stroke-dasharray="1,5" d="M55.65,-159.18C60.7,-157.48 66.61,-155.65 72.07,-154.38 125.88,-141.84 278.26,-156.69 318.07,-118.38 338.66,-98.56 341.06,-64.17 339.89,-40.78"/>
<polygon fill="red" stroke="red" stroke-width="0.4" points="343.39,-40.6 339.14,-30.89 336.41,-41.13 343.39,-40.6"/>
</g>
<!-- &#45;4&#45;&gt;1979 -->
<g id="edge16" class="edge">
<title>&#45;4&#45;&gt;1979</title>
<path fill="none" stroke="green" stroke-width="0.51" d="M43.07,-153.94C43.07,-147.41 43.07,-138.39 43.07,-129.3"/>
<polygon fill="green" stroke="green" stroke-width="0.51" points="46.57,-129.5 43.07,-119.5 39.57,-129.5 46.57,-129.5"/>
</g>
<!-- &#45;5 -->
<g id="node5" class="node">
<title>&#45;5</title>
<polygon fill="lightgray" stroke="black" points="309.2,-102.59 284.95,-102.59 284.95,-81.84 309.2,-81.84 309.2,-102.59"/>
<text text-anchor="middle" x="297.07" y="-90.04" font-family="Times,serif" font-size="9.00">&#45;5</text>
</g>
<!-- &#45;5&#45;&gt;0 -->
<g id="edge18" class="edge">
<title>&#45;5&#45;&gt;0</title>
<path fill="none" stroke="red" stroke-width="0.34" d="M309.48,-82.88C328.51,-70.11 365.09,-45.55 388.23,-30.02"/>
<polygon fill="red" stroke="red" stroke-width="0.34" points="390.16,-32.94 396.51,-24.46 386.26,-27.13 390.16,-32.94"/>
</g>
<!-- &#45;5&#45;&gt;2 -->
<g id="edge10" class="edge">
<title>&#45;5&#45;&gt;2</title>
<path fill="none" stroke="green" stroke-width="0.14" d="M290.3,-81.77C286.45,-76.77 281.36,-70.72 276.07,-66.05 258.82,-50.84 236.52,-37.02 220.18,-27.78"/>
<polygon fill="green" stroke="green" stroke-width="0.14" points="221.97,-24.77 211.52,-22.99 218.58,-30.89 221.97,-24.77"/>
</g>
<!-- &#45;5&#45;&gt;3 -->
<g id="edge1" class="edge">
<title>&#45;5&#45;&gt;3</title>
<path fill="none" stroke="red" stroke-width="0.63" d="M302.3,-81.39C308.06,-70.56 317.51,-52.79 325.11,-38.51"/>
<polygon fill="red" stroke="red" stroke-width="0.63" points="328.18,-40.19 329.79,-29.72 322,-36.9 328.18,-40.19"/>
</g>
<!-- &#45;6 -->
<g id="node6" class="node">
<title>&#45;6</title>
<polygon fill="lightgray" stroke="black" points="267.2,-102.59 242.95,-102.59 242.95,-81.84 267.2,-81.84 267.2,-102.59"/>
<text text-anchor="middle" x="255.07" y="-90.04" font-family="Times,serif" font-size="9.00">&#45;6</text>
</g>
<!-- &#45;6&#45;&gt;0 -->
<g id="edge22" class="edge">
<title>&#45;6&#45;&gt;0</title>
<path fill="none" stroke="red" stroke-width="0.3" d="M261.26,-81.5C265,-76.29 270.18,-70.13 276.07,-66.05 315.94,-38.44 334.16,-48.34 379.07,-30.05 381.49,-29.07 384,-27.99 386.49,-26.88"/>
<polygon fill="red" stroke="red" stroke-width="0.3" points="387.74,-30.16 395.35,-22.79 384.81,-23.8 387.74,-30.16"/>
</g>
<!-- &#45;6&#45;&gt;1 -->
<g id="edge14" class="edge">
<title>&#45;6&#45;&gt;1</title>
<path fill="none" stroke="red" stroke-width="0.24" d="M248.48,-81.55C244.69,-76.48 239.59,-70.44 234.07,-66.05 210.88,-47.62 179.81,-33.28 158.71,-24.76"/>
<polygon fill="red" stroke="red" stroke-width="0.24" points="160.16,-21.57 149.57,-21.19 157.61,-28.09 160.16,-21.57"/>
</g>
<!-- &#45;6&#45;&gt;2 -->
<g id="edge9" class="edge">
<title>&#45;6&#45;&gt;2</title>
<path fill="none" stroke="red" stroke-width="0.1" d="M247.62,-81.39C238.84,-69.81 224.04,-50.28 212.9,-35.59"/>
<polygon fill="red" stroke="red" stroke-width="0.1" points="215.76,-33.56 206.93,-27.71 210.18,-37.79 215.76,-33.56"/>
</g>
<!-- &#45;7 -->
<g id="node7" class="node">
<title>&#45;7</title>
<polygon fill="lightgray" stroke="black" points="105.2,-175.13 80.95,-175.13 80.95,-154.38 105.2,-154.38 105.2,-175.13"/>
<text text-anchor="middle" x="93.07" y="-162.58" font-family="Times,serif" font-size="9.00">&#45;7</text>
</g>
<!-- &#45;7&#45;&gt;2 -->
<g id="edge24" class="edge">
<title>&#45;7&#45;&gt;2</title>
<path fill="none" stroke="green" stroke-width="0.2" d="M98.46,-153.98C108.54,-136 131.27,-96.69 154.07,-66.05 162.4,-54.86 172.65,-43.1 181.17,-33.8"/>
<polygon fill="green" stroke="green" stroke-width="0.2" points="183.66,-36.26 187.9,-26.56 178.53,-31.5 183.66,-36.26"/>
</g>
<!-- &#45;7&#45;&gt;1979 -->
<g id="edge11" class="edge">
<title>&#45;7&#45;&gt;1979</title>
<path fill="none" stroke="green" stroke-width="0.16" d="M86.12,-153.94C80.35,-145.8 71.82,-133.78 63.88,-122.57"/>
<polygon fill="green" stroke="green" stroke-width="0.16" points="66.76,-120.58 58.12,-114.44 61.05,-124.63 66.76,-120.58"/>
</g>
<!-- &#45;8 -->
<g id="node8" class="node">
<title>&#45;8</title>
<polygon fill="lightgray" stroke="black" points="427.2,-102.59 402.95,-102.59 402.95,-81.84 427.2,-81.84 427.2,-102.59"/>
<text text-anchor="middle" x="415.07" y="-90.04" font-family="Times,serif" font-size="9.00">&#45;8</text>
</g>
<!-- &#45;8&#45;&gt;0 -->
<g id="edge5" class="edge">
<title>&#45;8&#45;&gt;0</title>
<path fill="none" stroke="red" stroke-width="0.45" d="M414.29,-81.39C413.47,-71.15 412.16,-54.7 411.05,-40.86"/>
<polygon fill="red" stroke="red" stroke-width="0.45" points="414.56,-40.86 410.28,-31.17 407.59,-41.42 414.56,-40.86"/>
</g>
<!-- &#45;8&#45;&gt;3 -->
<g id="edge3" class="edge">
<title>&#45;8&#45;&gt;3</title>
<path fill="none" stroke="green" stroke-width="0.68" d="M404.95,-81.41C400.14,-76.75 394.31,-71.11 389.07,-66.05 377.8,-55.18 365.14,-43 355.13,-33.38"/>
<polygon fill="green" stroke="green" stroke-width="0.68" points="357.81,-31.1 348.18,-26.69 352.96,-36.15 357.81,-31.1"/>
</g>
<!-- 2&#45;&gt;2 -->
<g id="edge4" class="edge">
<title>2&#45;&gt;2</title>
<path fill="none" stroke="red" stroke-width="0.18" stroke-dasharray="1,5" d="M208.55,-26.32C219.22,-32.96 231.1,-29.2 231.1,-15.03 231.1,-5.06 225.23,-0.24 218.03,-0.57"/>
<polygon fill="red" stroke="red" stroke-width="0.18" points="217.19,2.84 208.81,-3.65 219.4,-3.8 217.19,2.84"/>
</g>
<!-- 3&#45;&gt;3 -->
<g id="edge7" class="edge">
<title>3&#45;&gt;3</title>
<path fill="none" stroke="red" stroke-width="0.25" d="M347.55,-26.32C358.22,-32.96 370.1,-29.2 370.1,-15.03 370.1,-5.06 364.23,-0.24 357.03,-0.57"/>
<polygon fill="red" stroke="red" stroke-width="0.25" points="356.29,2.87 347.91,-3.61 358.51,-3.77 356.29,2.87"/>
</g>
<!-- 1979&#45;&gt;1 -->
<g id="edge12" class="edge">
<title>1979&#45;&gt;1</title>
<path fill="none" stroke="red" stroke-width="0.3" d="M63.03,-74.9C78.64,-62.15 100.21,-44.52 115.67,-31.88"/>
<polygon fill="red" stroke="red" stroke-width="0.3" points="117.67,-34.77 123.2,-25.73 113.24,-29.35 117.67,-34.77"/>
</g>
<!-- 1979&#45;&gt;2 -->
<g id="edge15" class="edge">
<title>1979&#45;&gt;2</title>
<path fill="none" stroke="green" stroke-width="0.45" d="M64.72,-76.76C70.58,-73.09 76.98,-69.27 83.07,-66.05 113.62,-49.92 150.49,-34.56 174.1,-25.22"/>
<polygon fill="green" stroke="green" stroke-width="0.45" points="175.27,-28.52 183.31,-21.62 172.73,-22 175.27,-28.52"/>
</g>
</g>
</svg>
